<svg xmlns="http://www.w3.org/2000/svg" viewBox="0 0 237.71 93.37"><defs><style>.cls-1{fill:#ff6f61;}</style></defs><g id="Capa_2" data-name="Capa 2"><g id="Capa_1-2" data-name="Capa 1"><g id="Kxytqr.tif"><path class="cls-1" d="M86,.2C85.31.13,85,.06,84.72.06c-20.53,0-41.07-.17-61.6.07C8.81.3-1.6,12.78.2,27a23.75,23.75,0,0,0,21.9,20.4c7.72.42,14-2.92,19.52-7.82C53,29.58,64.23,19.51,75.53,9.47ZM.45,93.26c.92.06,1.3.11,1.68.11q30.33,0,60.65,0a22.92,22.92,0,0,0,6.28-.85C82,88.69,89,76.31,85.58,63.2c-2.45-9.52-12-17-21.84-17.19-7.57-.15-13.66,3.2-19.09,8-11.2,9.87-22.32,19.82-33.48,29.74Z"/><path class="cls-1" d="M86,.2,75.53,9.47c-11.3,10-22.57,20.11-33.91,30.1-5.56,4.9-11.8,8.24-19.52,7.82A23.75,23.75,0,0,1,.2,27C-1.6,12.78,8.81.3,23.12.13,43.65-.11,64.19.06,84.72.06,85,.06,85.31.13,86,.2Z"/><path class="cls-1" d="M.45,93.26l10.72-9.52C22.33,73.82,33.45,63.87,44.65,54c5.43-4.79,11.52-8.14,19.09-8,9.83.2,19.39,7.67,21.84,17.19C89,76.31,82,88.69,69.06,92.48a22.92,22.92,0,0,1-6.28.85q-30.33.09-60.65,0C1.75,93.37,1.37,93.32.45,93.26Z"/></g><path class="cls-1" d="M116.09,93.37a26.31,26.31,0,0,1-12.46-3,22,22,0,0,1-8.92-8.68,27.59,27.59,0,0,1-3.3-14,27.82,27.82,0,0,1,3.42-14.17A23.72,23.72,0,0,1,104,44.49a25.72,25.72,0,0,1,12.64-3.19,20.85,20.85,0,0,1,11.63,3.13,21.3,21.3,0,0,1,7.14,7.38l-.71,1.77,1.07-10.27H146V92.19H135V79.44l1.3,2.83a15.23,15.23,0,0,1-2.25,3A28.88,28.88,0,0,1,129.84,89a22.63,22.63,0,0,1-13.75,4.36Zm3-9.09a17.55,17.55,0,0,0,7.44-1.53A14.59,14.59,0,0,0,132,78.38a16.47,16.47,0,0,0,3-6.61V62.2a15,15,0,0,0-3.31-6.2A16.34,16.34,0,0,0,126,51.87a17.5,17.5,0,0,0-7.2-1.48,15.91,15.91,0,0,0-8.15,2.13,15.75,15.75,0,0,0-5.84,5.9,17.35,17.35,0,0,0-2.19,8.86,16.93,16.93,0,0,0,2.25,8.62,16.65,16.65,0,0,0,6,6.14A15.73,15.73,0,0,0,119,84.28Z"/><path class="cls-1" d="M161.43.8h11.1V92.19h-11.1Z"/><path class="cls-1" d="M183.74,67.28a25.59,25.59,0,0,1,3.49-13.23,25.08,25.08,0,0,1,9.68-9.32A28.62,28.62,0,0,1,211,41.3,27.61,27.61,0,0,1,225,44.73a24.51,24.51,0,0,1,9.39,9.32,26.2,26.2,0,0,1,3.37,13.23,26.13,26.13,0,0,1-3.37,13.22A24.9,24.9,0,0,1,225,89.89a27.57,27.57,0,0,1-14,3.48,29.3,29.3,0,0,1-14-3.24,24.56,24.56,0,0,1-9.62-9.1A26,26,0,0,1,183.74,67.28Zm11.1.12A17.34,17.34,0,0,0,197,76,16.51,16.51,0,0,0,202.64,82a14.71,14.71,0,0,0,8,2.24A14.92,14.92,0,0,0,218.81,82,16,16,0,0,0,224.42,76a18.73,18.73,0,0,0,0-17.12,16.36,16.36,0,0,0-5.61-6.14,15.27,15.27,0,0,0-16.23,0,17,17,0,0,0-5.67,6.2A17.53,17.53,0,0,0,194.84,67.4Z"/></g></g></svg>