<svg xmlns="http://www.w3.org/2000/svg" viewBox="0 0 86.43 93.37"><defs><style>.cls-1{fill:#ff6f61;}</style></defs><g id="Capa_2" data-name="Capa 2"><g id="Capa_1-2" data-name="Capa 1"><g id="Kxytqr.tif"><path class="cls-1" d="M86,.2C85.31.13,85,.06,84.72.06c-20.53,0-41.07-.17-61.6.07C8.81.3-1.6,12.78.2,27a23.75,23.75,0,0,0,21.9,20.4c7.72.42,14-2.92,19.52-7.82C53,29.58,64.23,19.51,75.53,9.47ZM.45,93.26c.92.06,1.3.11,1.68.11q30.33,0,60.65,0a22.92,22.92,0,0,0,6.28-.85C82,88.69,89,76.31,85.58,63.2c-2.45-9.52-12-17-21.84-17.19-7.57-.15-13.66,3.2-19.09,8-11.2,9.87-22.32,19.82-33.48,29.74Z"/><path class="cls-1" d="M86,.2,75.53,9.47c-11.3,10-22.57,20.11-33.91,30.1-5.56,4.9-11.8,8.24-19.52,7.82A23.75,23.75,0,0,1,.2,27C-1.6,12.78,8.81.3,23.12.13,43.65-.11,64.19.06,84.72.06,85,.06,85.31.13,86,.2Z"/><path class="cls-1" d="M.45,93.26l10.72-9.52C22.33,73.82,33.45,63.87,44.65,54c5.43-4.79,11.52-8.14,19.09-8,9.83.2,19.39,7.67,21.84,17.19C89,76.31,82,88.69,69.06,92.48a22.92,22.92,0,0,1-6.28.85q-30.33.09-60.65,0C1.75,93.37,1.37,93.32.45,93.26Z"/></g></g></g></svg>